<?xml version="1.0" encoding="UTF-8"?>
<svg id="Layer_1" xmlns="http://www.w3.org/2000/svg" xmlns:xlink="http://www.w3.org/1999/xlink" version="1.1" viewBox="0 0 839.7 337.1">
  <!-- Generator: Adobe Illustrator 29.3.0, SVG Export Plug-In . SVG Version: 2.1.0 Build 146)  -->
  <defs>
    <style>
      .st0 {
        fill: url(#linear-gradient2);
      }

      .st1 {
        fill: url(#linear-gradient1);
      }

      .st2 {
        fill: url(#linear-gradient3);
      }

      .st3 {
        fill: url(#linear-gradient6);
      }

      .st4 {
        fill: url(#linear-gradient5);
      }

      .st5 {
        fill: url(#linear-gradient4);
      }

      .st6 {
        fill: url(#linear-gradient);
      }

      .st7 {
        fill: #c21e36;
      }

      .st8 {
        fill: #216b5c;
        font-size: 56.6px;
      }

      .st8, .st9 {
        font-family: MadaniArabic-Medium, MadaniArabic-Medium;
        font-weight: 500;
      }

      .st10 {
        font-family: DINArabic-Black, DINArabic-Black;
        font-size: 108.3px;
        font-weight: 800;
      }

      .st10, .st9 {
        fill: #1d1d1b;
      }

      .st9 {
        font-size: 124.5px;
      }
    </style>
    <linearGradient id="linear-gradient" x1="658.1" y1="29.8" x2="658.1" y2="315.8" gradientUnits="userSpaceOnUse">
      <stop offset="0" stop-color="#35ac5d"/>
      <stop offset="1" stop-color="#000"/>
    </linearGradient>
    <linearGradient id="linear-gradient1" x1="573.2" y1="29.8" x2="573.2" y2="315.8" xlink:href="#linear-gradient"/>
    <linearGradient id="linear-gradient2" x1="753.8" y1="29.8" x2="753.8" y2="315.8" xlink:href="#linear-gradient"/>
    <linearGradient id="linear-gradient3" x1="667.5" y1="29.8" x2="667.5" y2="315.8" xlink:href="#linear-gradient"/>
    <linearGradient id="linear-gradient4" x1="763" y1="29.8" x2="763" y2="315.8" xlink:href="#linear-gradient"/>
    <linearGradient id="linear-gradient5" x1="602.8" y1="29.8" x2="602.8" y2="315.8" xlink:href="#linear-gradient"/>
    <linearGradient id="linear-gradient6" x1="711.2" y1="29.8" x2="711.2" y2="315.8" xlink:href="#linear-gradient"/>
  </defs>
  <rect class="st7" x="453.7" y="30.7" width="9.1" height="286.2"/>
  <g>
    <path class="st6" d="M695.9,267.2c-.8-2-.7-4.4-.6-6.5v-.7c0-.5,0-1,0-1.5.4-2,3.3-10.8,4.5-12.6,2.1-3.4,8.3-9.3,11.5-11.9,8.6-6.8,19.2-12.1,27.5-19.4l.2-1.6-6.2-28.8-1.1-.7c-.4,3.5-2.5,14.8-5.2,16.4-5,.4-10.8-1-15.6.7-.2,0-.5,0-.7,0-6.2,0-12.4,0-18.6,0l-12.1,50.7c-.5,1.5-2,2.7-3.6,1.7l-17.4-106-11.5,52.3c-1.4,2.2-18.6,1-22.4,1.2-1,0-1.9-.2-2.9,0-1.7,5.3-2.7,12.8-4.9,17.8-1.7,3.9-3.9,2.4-5.1-.9-2.8-7.6-3.8-26.4-6.8-31.8-.2-.3-.9-.9-1.1-.7-.6,2.4-3.4,15.6-5.6,15.6h-21.2l48.7,35,10.1,11.1c.9,3.5,3.1,8.3,3.7,11.9.2,1.5.8,6.2.4,7.4l-26.4,38.7,27,7.4,2,4.2,24.9,21c7.2-6.1,16.1-12.2,22.7-18.8,2.3-2.3,3.5-4,5.2-6.7l26-7.1c.6-.7-3.2-5.9-3.9-6.9-6.9-10.3-14.4-20.3-21.6-30.4Z"/>
    <path class="st1" d="M621,280.8l1.8-.7c1.8-8.4,5-16.1,3.2-24.7-5-23.5-36.2-34.5-56.3-41.8-3.4-1.2-7.2-2.8-10,.4-6.9,7.9,8,13.1,12.1,16.9.7.7,1.7,1.6.9,2.5-.4.4-9.2-4.1-10.4-4.8-5-2.9-8.9-5.7-12.3-10.3-4.7-6.2-13.7-25-18.9-28.3-4.3-2.7-10.8-1.3-11.2,4.4-.3,5.1,8.9,24.6,11.8,29.9,17.8,32.6,32.7,31,64.6,41.7,9.2,3.1,20.1,5.9,24.7,15.1Z"/>
    <path class="st0" d="M758.6,199.8c-7.9-.8-8.2.2-9.7,7.4.5.6,7.6-4.6,8.4-5.3.7-.7,1.6-.7,1.2-2.1Z"/>
    <path class="st2" d="M711,195.3c4.2,0,8.5.3,12.7-.3,1.3-.9,4.9-19.6,6.8-22.9,1.2-2.1,2.1-2.6,4.3-1.3.4,2.7,1.7,5.6,2.2,8.2,2.2,9.9,3.5,20,6.3,29.7.7-2.2,1.2-4.5,2-6.7.8-2.5,1.5-5.2,4.2-6.1s7,0,10.3.2c6,.1,11.2-2.4,15.9-6,7.8-5.9,16-11.3,23.5-17.6,3.1-2.6,22.2-27.7,18-32.2-5.3,1.5-10.5,3.6-15.6,5.6-2.5,1-5.1,1.9-7.7,2.9-2.6.9-5.2,1.8-8,1.9-.5,0-1,0-1.4,0,12.1-6.6,24.2-13.5,36.7-19.4,2.7-1.3,4.4-9.5,5.4-12.1,5-13,9.3-26.5,10.5-40.4,0-1.1.8-1.9-.9-1.7-2.2,1.5-4.4,3-6.6,4.5-5.7,3.8-11.3,7.7-17,11.5-7.7,5.2-15.4,10.5-23.2,15.7-8.4,5.7-16.7,11.3-25.1,17-7.6,5.1-15.2,10.3-22.8,15.4-7.3,4.8-14.4,9.9-21.7,14.6,2.1-2.3,4.6-4.1,7.1-5.9,13.9-9.9,27.5-20.1,41-30.4,13.7-10.4,27.3-20.9,40.8-31.4,5.6-4.4,11.2-8.8,16.8-13.2,2.3-1.8,4.5-3.9,6.7-5.8s4.6-2.9,6.5-4.8c.2-.2.4-.5.6-.8.2-.4.2-1,.2-1.5,0-10.6,0-21.1,0-31.7-1.3-.3-1.5.5-2.2,1.1-24.2,18.6-48.8,43.5-72.1,64-20,17.5-40,34.9-60.2,52.1-6.9,2.4-14-9.7-15.4-15.1-.7-2.9-1.6-8.9.7-11.1,2-2,9.3-1.2,11.3,1.3.7.9,1.2,5,2.6,3.7.5-.5,2.3-6.6,2.3-7.8,0-3.6-2.3-8.4-5-10.7-2.1-1.7-5.8-2.5-6.8-3.3-1-.8-1.6-4.6-4.3-6.5-1.8-1.3-9.8-3.7-11.9-3.7h-30.9l6.7,5.9c-2.2.2-3,2.8-4.1,4.5,0,0-15.7,42-15.9,42.7-1.1,3-7.4-1.9-8.2-2.6-33.7-30.9-69.2-59.7-102.8-90.8-7.5-6.9-15-13.8-22.9-20.3-1.4-1.2-3.4-3-5.2-3.3v30.1c0,.7,1.1,4.1,1.8,4.9,36.7,27.7,73.6,55.8,109.6,83.7,3.3,2.6,6.7,5.1,9.7,8.1l-119-79.9c3.2,18.1,8.6,35.4,15.6,52.4,6.3,4.1,12.9,7.7,19.5,11.2,3.3,1.7,6.7,3.5,10,5.2,2.4,1.3,7.2,2.6,8.7,4.9-5.6-.6-11-3.4-16.4-5.1-5.8-1.8-11.6-3.6-17.3-5.5l14.5,29c2.9,3.1,6.6,5,10,7.5,3.9,2.9,23.9,17.4,26.7,18.3,6.5,2,19.8-.9,27.1.4,1.1-.2,4.8-19.3,6.8-22.3.6-.8,1.1-1.5,2.2-1.6,1.4,0,1.8,1.8,2.6,2.3.4,2.8.9,6.2,1.5,8.9,1.9,8.1,4.6,16.2,5.2,24.5,2.4-1.4,2.9-10.7,4.6-11.8,1.7-.3,3.4,0,5.1-.1,6.4-.2,12.9.2,19.3,0l13-63.9c.4-3.1,2.5-4.2,4.4-1.4,6.6,35,11.6,70.3,16.8,105.5l10.8-39.4c1.3-1.4,19.1-.7,22.7-.7ZM776.1,152.2c0-.2-.2-.4-.4-.5.2,0,.3.2.4.5ZM719.4,157.3c-.1.5-.2,1-.2,1.5,0-.5,0-1,.2-1.5ZM717.5,156c-.7.5-1.5,1.1-2.1,1.7.6-.7,1.3-1.2,2.1-1.7ZM673.8,103.8l10.4.7c-1.9,6.7-7.3,2.8-10.4-.7Z"/>
    <path class="st5" d="M815.1,190.5c-1.4-1.3-3.5-2-5.5-1.9-2.2.1-4.1,1.2-5.7,2.6-6.3,5.4-12.4,21.3-18.9,28.7-3.6,4-9.8,8.2-14.7,10.5-2.6,1.2-6.7,3.5-9.4,2.5,3.2-3.2,14.4-7.8,16.2-11.3,2.6-5,0-9.4-5.4-9.9-20.8,9.4-55.5,16.6-61.7,42.4-2,8.4.2,17.5,2.6,25.7.2.5-.2,1.7,1.1,1.1,1.6-.7,3.4-4.3,4.8-5.6,14.5-13.3,49.5-12.9,68.5-28.2,5.4-4.4,9.5-10.7,13.2-16.5,4.5-7.1,8.6-14.6,12-22.3,1-2.3,1.5-4.8,2.5-7.1s2.6-4.6,2.4-7.2c-.1-1.4-.8-2.6-1.8-3.4Z"/>
    <path class="st4" d="M602.8,163c0,.2,0,.3,0,.5,0-.1,0-.3,0-.5Z"/>
    <path class="st3" d="M711,184.2c0,0,.2,0,.4-.1-.2,0-.4,0-.4.1Z"/>
  </g>
  <text class="st9" transform="translate(11.3 240.5)"><tspan x="0" y="0">SALEM</tspan></text>
  <text class="st10" transform="translate(10.5 116.2)"><tspan x="0" y="0">ســـالـــم</tspan></text>
  <text class="st8" transform="translate(0 295.6)"><tspan x="0" y="0" xml:space="preserve"> صـــحة و أمـــان </tspan></text>
  <polygon class="st7" points="662.4 15.3 667.3 0 672.4 15.3 689 15.3 675.7 25.1 680.7 40.8 667.5 31.2 654.1 40.8 659.2 25.1 645.9 15.3 662.4 15.3"/>
  <polygon class="st7" points="704.3 57.1 709.1 41.9 714.3 57.1 730.9 57.1 717.6 67 722.6 82.7 709.4 73.1 696 82.7 701 67 687.7 57.1 704.3 57.1"/>
  <polygon class="st7" points="618.7 57.1 623.5 41.9 628.6 57.1 645.2 57.1 631.9 67 636.9 82.7 623.8 73.1 610.4 82.7 615.4 67 602.1 57.1 618.7 57.1"/>
</svg>